<mxfile host="app.diagrams.net" modified="2023-12-02T03:25:31.959Z" agent="Mozilla/5.0 (Windows NT 10.0; Win64; x64) AppleWebKit/537.36 (KHTML, like Gecko) Chrome/119.0.0.0 Safari/537.36 Edg/119.0.0.0" version="22.1.5" etag="UKyN5pvjZGL1hOnRPFPe" type="github">
  <diagram name="第 1 页" id="i7Yiz7WaMGMzV0gjsp2C">
    <mxGraphModel>
      <root>
        <mxCell id="0" />
        <mxCell id="1" parent="0" />
      </root>
    </mxGraphModel>
  </diagram>
</mxfile>
